<svg width="24" height="22" viewBox="0 0 24 22" fill="none" xmlns="http://www.w3.org/2000/svg">
<path d="M7.60098 5.49961H3.20098C2.6175 5.49961 2.05792 5.73139 1.64534 6.14397C1.23276 6.55655 1.00098 7.11613 1.00098 7.69961V18.6996C1.00098 19.2831 1.23276 19.8427 1.64534 20.2552C2.05792 20.6678 2.6175 20.8996 3.20098 20.8996H20.801C21.3845 20.8996 21.944 20.6678 22.3566 20.2552C22.7692 19.8427 23.001 19.2831 23.001 18.6996V7.69961C23.001 7.11613 22.7692 6.55655 22.3566 6.14397C21.944 5.73139 21.3845 5.49961 20.801 5.49961H16.401M7.60098 5.49961V1.75961C7.60098 1.58457 7.67051 1.41669 7.79428 1.29292C7.91806 1.16914 8.08593 1.09961 8.26098 1.09961H15.741C15.916 1.09961 16.0839 1.16914 16.2077 1.29292C16.3314 1.41669 16.401 1.58457 16.401 1.75961V5.49961M7.60098 5.49961H16.401" stroke="white" stroke-width="1.5"/>
</svg>
