<svg width="13" height="13" viewBox="0 0 13 13" fill="none" xmlns="http://www.w3.org/2000/svg">
<path d="M4.82422 8.12188C4.82422 8.7708 5.32223 9.29396 5.94096 9.29396H7.20358C7.74183 9.29396 8.17948 8.83619 8.17948 8.27279C8.17948 7.65909 7.91287 7.44278 7.51547 7.30193L5.48823 6.59768C5.09083 6.45683 4.82422 6.24052 4.82422 5.62682C4.82422 5.06342 5.26186 4.60565 5.80011 4.60565H7.06273C7.68147 4.60565 8.17948 5.12881 8.17948 5.77773" stroke="#7F879E" stroke-width="0.905467" stroke-linecap="round" stroke-linejoin="round"/>
<path d="M6.49805 3.9317V9.96815" stroke="#7F879E" stroke-width="0.905467" stroke-linecap="round" stroke-linejoin="round"/>
<path d="M6.49815 11.9803C9.27634 11.9803 11.5285 9.72813 11.5285 6.94993C11.5285 4.17173 9.27634 1.91956 6.49815 1.91956C3.71995 1.91956 1.46777 4.17173 1.46777 6.94993C1.46777 9.72813 3.71995 11.9803 6.49815 11.9803Z" stroke="#7F879E" stroke-width="0.905467" stroke-linecap="round" stroke-linejoin="round"/>
</svg>
