<svg width="320" height="320" viewBox="0 0 320 320" fill="none" xmlns="http://www.w3.org/2000/svg">
<path d="M213.76 22.1313C213.76 22.1313 164.224 4.51847 115.603 32.5633C66.982 60.6081 42.4316 116.269 21.3629 160.858C0.294052 205.446 12.4028 250.81 49.5229 271.488C86.6428 292.166 111.878 261.683 163.948 260.198C216.019 258.714 230.041 266.157 273.28 236.742C316.518 207.328 324.294 137.856 290.214 86.4577C256.134 35.0593 213.76 22.1313 213.76 22.1313Z" fill="#465EFD" fill-opacity="0.2"/>
<path d="M26.1954 181.312C26.1954 181.312 27.3858 183.571 26.3298 185.69C25.2738 187.808 23.9426 189.933 24.7362 190.995C25.5298 192.058 27.9362 193.382 27.6546 195.635C27.373 197.888 24.205 202.4 26.1954 204.922C28.1858 207.443 31.501 207.309 31.6354 210.093C31.7698 212.877 28.4354 215.13 29.3762 217.651C30.317 220.173 35.7762 220.704 35.7762 222.426C35.7762 224.147 33.6514 226.01 35.3794 227.866C37.1074 229.722 45.4402 234.566 46.605 232.576C47.7698 230.586 50.2018 225.082 48.621 217.267C48.3522 215.955 46.4834 215.661 46.221 213.805C45.9586 211.949 46.7522 208.634 45.4274 206.765C44.1026 204.896 39.853 204.243 39.5906 202.784C39.3282 201.325 41.1778 197.747 39.3218 195.494C37.4658 193.242 33.0882 192.192 33.0882 190.72C33.0882 189.248 34.4194 187.405 32.5634 185.414C30.7074 183.424 26.1954 181.312 26.1954 181.312Z" fill="#A000FD"/>
<path d="M32.5439 196.941C35.3087 205.261 40.1471 216.569 42.1119 222.029C44.4991 228.659 46.5919 233.459 47.6351 240.089C48.6783 246.72 49.2799 291.129 49.2799 291.129" stroke="#263238" stroke-width="0.64" stroke-linecap="round" stroke-linejoin="round"/>
<path d="M26.8799 182.112C26.8799 182.112 29.1327 183.968 31.1231 192.058C31.2511 192.576 31.3983 193.126 31.5583 193.709" stroke="#263238" stroke-width="0.64" stroke-linecap="round" stroke-linejoin="round"/>
<path d="M67.6479 196.422C67.3781 196.965 67.2292 197.559 67.2115 198.165C67.1938 198.77 67.3078 199.372 67.5455 199.93C68.3903 201.626 69.4655 203.322 68.8255 204.173C68.1855 205.024 66.2655 206.093 66.4895 207.885C66.7135 209.677 69.2479 213.299 67.6543 215.315C66.0607 217.331 63.4111 217.235 63.3023 219.456C63.1935 221.677 65.8623 223.488 65.1071 225.504C64.3519 227.52 59.9871 227.949 59.9871 229.344C59.9871 230.739 61.6895 232.211 60.3071 233.696C58.9247 235.181 52.2687 239.04 51.3151 237.44C50.3615 235.84 48.4415 231.443 49.7023 225.19C49.9135 224.141 51.4111 223.91 51.6223 222.419C51.8335 220.928 51.1999 218.278 52.2623 216.794C53.3247 215.309 56.7423 214.778 56.9279 213.594C57.1135 212.41 55.6479 209.562 57.1391 207.757C58.6303 205.952 62.1311 205.101 62.1311 203.917C62.1311 202.733 61.0687 201.261 62.5535 199.667C64.0383 198.074 67.6479 196.422 67.6479 196.422Z" fill="#A000FD"/>
<path d="M62.5667 208.928C60.3587 215.603 56.4867 224.64 54.8867 229.005C52.9667 234.317 51.3155 238.157 50.4707 243.462C49.6259 248.768 49.1587 284.307 49.1587 284.307" stroke="#263238" stroke-width="0.64" stroke-linecap="round" stroke-linejoin="round"/>
<path d="M67.1171 197.062C67.1171 197.062 65.3122 198.547 63.725 205.024C63.6226 205.44 63.501 205.882 63.373 206.342" stroke="#263238" stroke-width="0.64" stroke-linecap="round" stroke-linejoin="round"/>
<path d="M31.1549 226.477C31.3795 226.929 31.5038 227.425 31.5193 227.929C31.5347 228.434 31.441 228.936 31.2445 229.402C30.5341 230.822 29.6445 232.237 30.1757 232.947C30.7069 233.658 32.3069 234.547 32.1277 236.051C31.9485 237.555 29.8237 240.576 31.1549 242.259C32.4861 243.942 34.7005 243.853 34.7901 245.715C34.8797 247.578 32.6397 249.088 33.2797 250.771C33.9197 252.454 37.5357 252.813 37.5357 253.971C37.5357 255.13 36.1213 256.365 37.2733 257.606C38.4253 258.848 43.9997 262.086 44.7997 260.755C45.5997 259.424 47.2061 255.744 46.1437 250.515C45.9709 249.638 44.7229 249.44 44.5437 248.198C44.3645 246.957 44.8957 244.742 44.0125 243.501C43.1293 242.259 40.2877 241.818 40.1085 240.838C39.9293 239.859 41.1709 237.472 39.9293 235.962C38.6877 234.451 35.7629 233.747 35.7629 232.762C35.7629 231.776 36.6525 230.541 35.4109 229.21C34.1693 227.878 31.1549 226.477 31.1549 226.477Z" fill="#A000FD"/>
<path d="M35.3984 236.928C37.248 242.503 40.48 250.048 41.7984 253.696C43.3984 258.131 44.7872 261.376 45.4912 265.773C46.1952 270.17 46.592 286.662 46.592 286.662" stroke="#263238" stroke-width="0.64" stroke-linecap="round" stroke-linejoin="round"/>
<path d="M31.5967 227.008C31.5967 227.008 33.1071 228.25 34.4319 233.658C34.5215 234.01 34.6175 234.374 34.7263 234.758" stroke="#263238" stroke-width="0.64" stroke-linecap="round" stroke-linejoin="round"/>
<path d="M76.7997 224.269C76.4763 224.657 76.2413 225.112 76.1109 225.6C75.9805 226.089 75.9578 226.6 76.0445 227.098C76.4093 228.64 76.9533 230.221 76.2685 230.79C75.5837 231.36 73.8365 231.859 73.6637 233.35C73.4909 234.842 74.8733 238.278 73.1901 239.616C71.5069 240.954 69.3501 240.352 68.8573 242.176C68.3645 244 70.1373 245.939 69.1709 247.437C68.2045 248.934 64.5629 248.448 64.2941 249.574C64.0253 250.701 65.1325 252.224 63.7245 253.171C62.3165 254.118 56.1725 256 55.6797 254.509C55.1869 253.018 54.4893 249.082 56.7101 244.237C57.0877 243.424 58.3485 243.52 58.8029 242.349C59.2573 241.178 59.2509 238.906 60.3965 237.901C61.5421 236.896 64.4093 237.107 64.8061 236.198C65.2029 235.29 64.5373 232.678 66.0861 231.494C67.6349 230.31 70.6493 230.291 70.8733 229.338C71.0973 228.384 70.5149 226.982 72.0317 225.971C73.5485 224.96 76.7997 224.269 76.7997 224.269Z" fill="#A000FD"/>
<path d="M70.3039 233.466C67.2319 238.47 62.3551 245.082 60.2431 248.333C57.6831 252.282 54.5919 254.81 53.8815 259.245C53.1711 263.68 52.7871 280.134 52.7871 280.134" stroke="#263238" stroke-width="0.64" stroke-linecap="round" stroke-linejoin="round"/>
<path d="M76.2753 224.685C76.2753 224.685 74.5217 225.549 71.9937 230.509C71.8273 230.829 71.6481 231.149 71.4497 231.514" stroke="#263238" stroke-width="0.64" stroke-linecap="round" stroke-linejoin="round"/>
<path d="M45.3314 296.128H55.1938C60.3842 293.453 64.0706 286.682 64.0706 278.739C64.1549 273.977 62.7004 269.315 59.9234 265.446H40.6018C37.8338 269.319 36.3884 273.98 36.4802 278.739C36.4802 286.682 40.141 293.453 45.3314 296.128Z" fill="white" stroke="#263238" stroke-width="0.64" stroke-linecap="round" stroke-linejoin="round"/>
<path d="M55.3727 296.128H45.3311V297.6H55.3727V296.128Z" fill="white" stroke="#263238" stroke-width="0.64" stroke-linecap="round" stroke-linejoin="round"/>
<path d="M192.243 48H35.0332V166.989H192.243V48Z" stroke="#263238" stroke-width="0.64" stroke-linecap="round" stroke-linejoin="round"/>
<path d="M188.57 51.1552H38.7012V163.84H188.57V51.1552Z" stroke="#263238" stroke-width="0.64" stroke-linecap="round" stroke-linejoin="round"/>
<path d="M84.3837 67.6927C84.3837 67.6927 59.8973 65.92 57.8365 69.76C55.7757 73.6 57.2413 143.808 58.4253 144.691C59.6093 145.574 92.6461 146.163 95.8909 144.986C99.1357 143.808 94.7197 72.4096 94.7197 70.3424C94.7197 68.2752 87.0397 67.392 87.0397 67.392" stroke="#263238" stroke-width="1.28" stroke-linecap="round" stroke-linejoin="round"/>
<path d="M60.3647 125.805C60.4159 135.059 60.6143 141.843 61.0815 142.029C62.5535 142.618 93.8239 145.274 94.7071 142.323C95.5903 139.373 92.3455 72.704 92.3455 72.704" stroke="#263238" stroke-width="1.28" stroke-linecap="round" stroke-linejoin="round"/>
<path d="M91.1681 72.4096C91.1681 72.4096 61.3761 71.232 61.0881 72.704C60.8961 73.6448 60.3521 101.286 60.3585 121.382" stroke="#263238" stroke-width="1.28" stroke-linecap="round" stroke-linejoin="round"/>
<path d="M61.9653 77.7214H90.8741" stroke="#263238" stroke-width="1.28" stroke-linecap="round" stroke-linejoin="round"/>
<path d="M88.2179 76.3839C86.4515 78.2527 88.2179 76.3839 89.4019 73.7151C90.5859 71.0463 88.2179 74.2463 85.5619 76.3839C82.9059 78.5215 84.3843 76.9215 85.2675 73.9839C86.1507 71.0463 84.3843 73.9839 82.0227 75.8527C79.6611 77.7215 80.8451 76.9215 81.7283 73.7151C82.6115 70.5087 81.7283 73.7151 78.1891 75.8527C74.6499 77.9903 76.4163 77.9839 78.1891 74.7839C79.9619 71.5839 77.0115 74.7839 73.7667 75.8527C70.5219 76.9215 73.7667 75.8527 74.9443 72.9151C76.1219 69.9775 72.8771 73.7151 70.5219 75.3151C68.1667 76.9151 70.5219 75.3151 71.1107 73.4463C71.6995 71.5775 69.6323 73.9839 67.2707 76.3839C64.9091 78.7839 67.2707 76.3839 67.5651 74.2463C67.8595 72.1087 64.9091 77.7215 64.9091 77.7215C64.9091 77.7215 65.7923 72.3775 65.2035 73.7151C64.8108 74.5726 64.3143 75.3786 63.7251 76.1151" stroke="#A000FD" stroke-width="1.28" stroke-linecap="round" stroke-linejoin="round"/>
<path d="M77.8941 82.7328H63.4365V97.7792H77.8941V82.7328Z" stroke="#A000FD" stroke-width="1.28" stroke-linecap="round" stroke-linejoin="round"/>
<path d="M66.3869 82.7328L64.0317 85.3888L69.0429 83.6224L64.0317 88.3392L72.2877 83.0272L64.0317 91.8784L75.2381 83.6224L63.4365 94.5344L77.5997 84.8L63.4365 97.7792L77.5997 88.3392L67.5709 97.1904L77.8941 91.584L71.4045 96.896L77.5997 94.8288L76.4157 96.896" stroke="#A000FD" stroke-width="1.28" stroke-linecap="round" stroke-linejoin="round"/>
<path d="M90.355 128.755H79.3022V140.262H90.355V128.755Z" stroke="#A000FD" stroke-width="1.28" stroke-linecap="round" stroke-linejoin="round"/>
<path d="M81.555 128.755L79.7502 130.784L83.5838 129.434L79.7502 133.043L86.067 128.979L79.7502 135.75L88.3198 129.434L79.3022 137.779L90.1246 130.336L79.3022 140.262L90.1246 133.043L82.4574 139.808L90.355 135.52L85.3886 139.584L90.1246 138.003L89.2222 139.584" stroke="#A000FD" stroke-width="1.28" stroke-linecap="round" stroke-linejoin="round"/>
<path d="M63.1421 103.385H91.4621" stroke="#263238" stroke-width="1.28" stroke-linecap="round" stroke-linejoin="round"/>
<path d="M62.8481 106.042L90.8738 106.336" stroke="#263238" stroke-width="1.28" stroke-linecap="round" stroke-linejoin="round"/>
<path d="M80.8447 83.6223H89.9903" stroke="#263238" stroke-width="1.28" stroke-linecap="round" stroke-linejoin="round"/>
<path d="M80.8447 87.1616H89.9903" stroke="#263238" stroke-width="1.28" stroke-linecap="round" stroke-linejoin="round"/>
<path d="M80.8447 90.7009H89.9903" stroke="#263238" stroke-width="1.28" stroke-linecap="round" stroke-linejoin="round"/>
<path d="M80.8447 94.2402H89.9903" stroke="#263238" stroke-width="1.28" stroke-linecap="round" stroke-linejoin="round"/>
<path d="M90.8733 107.808H63.4365V121.081H90.8733V107.808Z" stroke="#A000FD" stroke-width="1.28" stroke-linecap="round" stroke-linejoin="round"/>
<path d="M63.1425 110.464L66.9761 108.102L62.5537 114.886L69.9265 108.102L63.4369 117.843L74.9441 107.808L64.9153 119.609L77.3057 108.102L67.8657 119.609L81.4337 107.808L70.5217 120.787L84.0897 108.102L73.7665 120.198L87.6289 107.808L77.0113 120.787L90.8737 107.808L80.8449 120.493L90.2849 112.237L84.0897 119.904L90.2849 115.776L89.0689 117.747L87.9233 119.609" stroke="#A000FD" stroke-width="1.28" stroke-linecap="round" stroke-linejoin="round"/>
<path d="M64.6216 124.627H89.9912" stroke="#263238" stroke-width="1.28" stroke-linecap="round" stroke-linejoin="round"/>
<path d="M64.0317 127.872H72.2877" stroke="#263238" stroke-width="1.28" stroke-linecap="round" stroke-linejoin="round"/>
<path d="M95.8911 74.1825L116.141 71.6929" stroke="#263238" stroke-width="1.28" stroke-linecap="round" stroke-linejoin="round"/>
<path d="M92.646 88.6335H113.881" stroke="#263238" stroke-width="1.28" stroke-linecap="round" stroke-linejoin="round"/>
<path d="M59.0143 115.482L49.8687 118.726" stroke="#263238" stroke-width="1.28" stroke-linecap="round" stroke-linejoin="round"/>
<path d="M84.9731 142.323C84.9731 142.323 83.2067 151.469 95.2963 153.843" stroke="#263238" stroke-width="1.28" stroke-linecap="round" stroke-linejoin="round"/>
<path d="M93.5297 151.469L96.4801 154.125L92.3457 155.302" stroke="#263238" stroke-width="1.28" stroke-linecap="round" stroke-linejoin="round"/>
<path d="M111.226 85.9777L115.949 88.9281L111.821 90.7009" stroke="#263238" stroke-width="1.28" stroke-linecap="round" stroke-linejoin="round"/>
<path d="M112.307 70.8096L117.318 71.3984L113.779 74.6432" stroke="#263238" stroke-width="1.28" stroke-linecap="round" stroke-linejoin="round"/>
<path d="M51.0468 115.776L46.0356 119.904L52.2308 120.198" stroke="#263238" stroke-width="1.28" stroke-linecap="round" stroke-linejoin="round"/>
<path d="M128.634 85.9777H117.421V97.7793H128.634V85.9777Z" fill="#A000FD"/>
<path d="M120.077 88.6335L126.566 88.9279" stroke="#263238" stroke-width="1.28" stroke-linecap="round" stroke-linejoin="round"/>
<path d="M120.077 90.9951L126.566 91.2895" stroke="#263238" stroke-width="1.28" stroke-linecap="round" stroke-linejoin="round"/>
<path d="M120.077 93.3572L126.566 93.6516" stroke="#263238" stroke-width="1.28" stroke-linecap="round" stroke-linejoin="round"/>
<path d="M110.802 101.878L99.6665 103.192L101.05 114.913L112.185 113.599L110.802 101.878Z" fill="#A000FD"/>
<path d="M102.611 105.523L109.088 105.056" stroke="#263238" stroke-width="1.28" stroke-linecap="round" stroke-linejoin="round"/>
<path d="M102.886 107.866L109.363 107.398" stroke="#263238" stroke-width="1.28" stroke-linecap="round" stroke-linejoin="round"/>
<path d="M103.162 110.208L109.645 109.741" stroke="#263238" stroke-width="1.28" stroke-linecap="round" stroke-linejoin="round"/>
<path d="M52.6956 121.939L41.5601 123.253L42.9431 134.973L54.0786 133.659L52.6956 121.939Z" fill="#A000FD"/>
<path d="M44.4927 125.581L50.9759 125.114" stroke="#263238" stroke-width="1.28" stroke-linecap="round" stroke-linejoin="round"/>
<path d="M44.7676 127.929L51.2508 127.462" stroke="#263238" stroke-width="1.28" stroke-linecap="round" stroke-linejoin="round"/>
<path d="M45.0498 130.272L51.5266 129.805" stroke="#263238" stroke-width="1.28" stroke-linecap="round" stroke-linejoin="round"/>
<path d="M110.634 146.493L99.4844 145.308L98.2364 157.043L109.386 158.229L110.634 146.493Z" fill="#A000FD"/>
<path d="M101.856 148.224L108.275 149.203" stroke="#263238" stroke-width="1.28" stroke-linecap="round" stroke-linejoin="round"/>
<path d="M101.606 150.573L108.026 151.552" stroke="#263238" stroke-width="1.28" stroke-linecap="round" stroke-linejoin="round"/>
<path d="M101.357 152.922L107.776 153.901" stroke="#263238" stroke-width="1.28" stroke-linecap="round" stroke-linejoin="round"/>
<path d="M192.236 166.989H35.0332V171.008H192.236V166.989Z" fill="#263238" stroke="#263238" stroke-width="0.64" stroke-linecap="round" stroke-linejoin="round"/>
<path d="M255.321 195.795V188.295H232.748V195.795C232.746 198.253 231.899 200.635 230.348 202.541L229.363 203.763H258.707L257.721 202.541C256.171 200.635 255.323 198.253 255.321 195.795Z" fill="#263238" stroke="#263238" stroke-width="0.64" stroke-linecap="round" stroke-linejoin="round"/>
<path d="M254.041 195.795V188.295H231.469V195.795C231.466 198.253 230.619 200.635 229.069 202.541L228.083 203.763H257.427L256.441 202.541C254.891 200.635 254.044 198.253 254.041 195.795Z" fill="white" stroke="#263238" stroke-width="0.64" stroke-linecap="round" stroke-linejoin="round"/>
<path d="M254.22 190.413H231.558V192.71H254.22V190.413Z" fill="#263238"/>
<path d="M282.688 124.039H202.816C199.818 124.039 197.389 126.468 197.389 129.466V185.229C197.389 188.226 199.818 190.656 202.816 190.656H282.688C285.685 190.656 288.115 188.226 288.115 185.229V129.466C288.115 126.468 285.685 124.039 282.688 124.039Z" fill="#263238" stroke="#263238" stroke-width="0.64" stroke-linecap="round" stroke-linejoin="round"/>
<path d="M285.126 124.039H205.254C202.256 124.039 199.827 126.468 199.827 129.466V185.229C199.827 188.226 202.256 190.656 205.254 190.656H285.126C288.123 190.656 290.553 188.226 290.553 185.229V129.466C290.553 126.468 288.123 124.039 285.126 124.039Z" fill="#263238" stroke="#263238" stroke-width="0.64" stroke-linecap="round" stroke-linejoin="round"/>
<path d="M197.389 180.3H288.121V185.228C288.121 186.668 287.55 188.048 286.532 189.066C285.514 190.084 284.134 190.656 282.694 190.656H202.822C201.383 190.656 200.002 190.084 198.985 189.066C197.967 188.048 197.395 186.668 197.395 185.228V180.3H197.389Z" fill="white" stroke="#263238" stroke-width="0.64" stroke-linecap="round" stroke-linejoin="round"/>
<path d="M283.552 128.186H201.952V175.251H283.552V128.186Z" fill="white"/>
<path d="M230.348 133.088H214.297C213.223 133.088 212.352 133.959 212.352 135.033V168.185C212.352 169.26 213.223 170.131 214.297 170.131H230.348C231.423 170.131 232.294 169.26 232.294 168.185V135.033C232.294 133.959 231.423 133.088 230.348 133.088Z" fill="#263238"/>
<path d="M230.624 136.192H214.029V167.015H230.624V136.192Z" fill="#A000FD"/>
<path d="M252.499 136.71H237.478V138.266H252.499V136.71Z" fill="#263238"/>
<path d="M244.736 140.083H237.741V147.334H244.736V140.083Z" fill="#A000FD"/>
<path d="M251.462 162.355H247.718V166.24H251.462V162.355Z" fill="#A000FD"/>
<path d="M252.16 152.512H237.914V159.764H252.16V152.512Z" fill="#A000FD"/>
<path d="M246.029 140.602H251.725" stroke="#263238" stroke-width="0.64" stroke-linecap="round" stroke-linejoin="round"/>
<path d="M246.029 142.413H251.725" stroke="#263238" stroke-width="0.64" stroke-linecap="round" stroke-linejoin="round"/>
<path d="M246.029 144.224H251.725" stroke="#263238" stroke-width="0.64" stroke-linecap="round" stroke-linejoin="round"/>
<path d="M246.029 146.036H251.725" stroke="#263238" stroke-width="0.64" stroke-linecap="round" stroke-linejoin="round"/>
<path d="M238.169 150.182H251.897" stroke="#263238" stroke-width="0.64" stroke-linecap="round" stroke-linejoin="round"/>
<path d="M238.169 161.581H251.897" stroke="#263238" stroke-width="0.64" stroke-linecap="round" stroke-linejoin="round"/>
<path d="M253.798 135.162H236.186V167.802H253.798V135.162Z" stroke="#263238" stroke-width="0.64" stroke-linecap="round" stroke-linejoin="round"/>
<path d="M275.296 135.162H258.72V147.334H275.296V135.162Z" fill="#BFBFBF"/>
<path d="M275.296 135.162H258.72V137.754H275.296V135.162Z" fill="#263238"/>
<path d="M264.339 139.635H260.006V143.827H264.339V139.635Z" stroke="#263238" stroke-width="0.64" stroke-linecap="round" stroke-linejoin="round"/>
<path d="M273.005 139.635H268.672V143.827H273.005V139.635Z" stroke="#263238" stroke-width="0.64" stroke-linecap="round" stroke-linejoin="round"/>
<path d="M273.702 136.634C273.702 136.76 273.664 136.884 273.594 136.989C273.524 137.094 273.424 137.176 273.307 137.225C273.19 137.273 273.061 137.286 272.937 137.261C272.813 137.237 272.699 137.176 272.609 137.086C272.52 136.997 272.459 136.883 272.434 136.758C272.409 136.634 272.422 136.506 272.471 136.389C272.519 136.272 272.601 136.172 272.706 136.101C272.812 136.031 272.935 135.994 273.062 135.994C273.232 135.994 273.394 136.061 273.514 136.181C273.634 136.301 273.702 136.464 273.702 136.634Z" fill="white"/>
<path d="M270.067 137.261C270.413 137.261 270.694 136.98 270.694 136.634C270.694 136.287 270.413 136.006 270.067 136.006C269.72 136.006 269.439 136.287 269.439 136.634C269.439 136.98 269.72 137.261 270.067 137.261Z" fill="white"/>
<path d="M273.971 153.933H261.28V163.258H273.971V153.933Z" fill="#BFBFBF"/>
<path d="M273.971 153.933H261.28V155.917H273.971V153.933Z" fill="#263238"/>
<path d="M272.755 155.059C272.756 155.156 272.729 155.25 272.676 155.331C272.623 155.412 272.548 155.475 272.459 155.513C272.37 155.551 272.272 155.561 272.178 155.543C272.083 155.525 271.996 155.48 271.927 155.412C271.858 155.344 271.811 155.257 271.792 155.163C271.773 155.068 271.782 154.97 271.819 154.881C271.855 154.792 271.918 154.715 271.998 154.662C272.078 154.608 272.172 154.579 272.269 154.579C272.396 154.579 272.519 154.63 272.61 154.719C272.701 154.809 272.753 154.931 272.755 155.059Z" fill="white"/>
<path d="M270.451 155.059C270.451 155.187 270.4 155.309 270.31 155.399C270.22 155.489 270.098 155.539 269.971 155.539C269.843 155.539 269.721 155.489 269.631 155.399C269.541 155.309 269.491 155.187 269.491 155.059C269.491 154.932 269.541 154.81 269.631 154.72C269.721 154.63 269.843 154.579 269.971 154.579C270.098 154.579 270.22 154.63 270.31 154.72C270.4 154.81 270.451 154.932 270.451 155.059Z" fill="white"/>
<path d="M209.971 130.656H204.64V172.467H209.971V130.656Z" fill="#BFBFBF"/>
<path d="M209.971 130.656H204.64V132.576H209.971V130.656Z" fill="#263238"/>
<path d="M208.48 133.856H205.92V136.845H208.48V133.856Z" stroke="#263238" stroke-width="0.64" stroke-linecap="round" stroke-linejoin="round"/>
<path d="M208.48 138.758H205.92V141.747H208.48V138.758Z" stroke="#263238" stroke-width="0.64" stroke-linecap="round" stroke-linejoin="round"/>
<path d="M208.48 143.667H205.92V146.656H208.48V143.667Z" stroke="#263238" stroke-width="0.64" stroke-linecap="round" stroke-linejoin="round"/>
<path d="M208.48 148.576H205.92V151.565H208.48V148.576Z" stroke="#263238" stroke-width="0.64" stroke-linecap="round" stroke-linejoin="round"/>
<path d="M208.48 153.478H205.92V156.467H208.48V153.478Z" stroke="#263238" stroke-width="0.64" stroke-linecap="round" stroke-linejoin="round"/>
<path d="M208.48 158.387H205.92V161.376H208.48V158.387Z" stroke="#263238" stroke-width="0.64" stroke-linecap="round" stroke-linejoin="round"/>
<path d="M208.48 163.296H205.92V166.285H208.48V163.296Z" stroke="#263238" stroke-width="0.64" stroke-linecap="round" stroke-linejoin="round"/>
<path d="M208.48 168.198H205.92V171.187H208.48V168.198Z" stroke="#263238" stroke-width="0.64" stroke-linecap="round" stroke-linejoin="round"/>
<path d="M281.229 130.227H213.389V131.936H281.229V130.227Z" fill="#BFBFBF"/>
<path d="M281.229 171.616H213.389V173.325H281.229V171.616Z" fill="#BFBFBF"/>
<path d="M257.433 203.763H228.083V205.101H257.433V203.763Z" fill="#263238" stroke="#263238" stroke-width="0.64" stroke-linecap="round" stroke-linejoin="round"/>
<path d="M276.62 202.669H208.479V205.101H276.62V202.669Z" fill="white" stroke="#263238" stroke-width="0.64" stroke-linecap="round" stroke-linejoin="round"/>
<path d="M147.417 297.6H144.646L143.257 212.691H148.806L147.417 297.6Z" fill="white" stroke="#263238" stroke-width="0.64" stroke-linecap="round" stroke-linejoin="round"/>
<path d="M147.417 297.6H146.195L146.361 212.691H148.806L147.417 297.6Z" fill="#263238" stroke="#263238" stroke-width="0.64" stroke-linecap="round" stroke-linejoin="round"/>
<path d="M186.925 297.6H184.153L182.765 212.691H188.313L186.925 297.6Z" fill="white" stroke="#263238" stroke-width="0.64" stroke-linecap="round" stroke-linejoin="round"/>
<path d="M186.925 297.6H185.703L185.869 212.691H188.314L186.925 297.6Z" fill="#263238" stroke="#263238" stroke-width="0.64" stroke-linecap="round" stroke-linejoin="round"/>
<path d="M172.78 297.6H170.003L168.62 212.691H174.163L172.78 297.6Z" fill="#263238" stroke="#263238" stroke-width="0.64" stroke-linecap="round" stroke-linejoin="round"/>
<path d="M172.781 297.6H171.559L171.719 212.691H174.163L172.781 297.6Z" fill="#263238" stroke="#263238" stroke-width="0.64" stroke-linecap="round" stroke-linejoin="round"/>
<path d="M199.474 297.6H196.697L195.314 212.691H200.857L199.474 297.6Z" fill="#263238" stroke="#263238" stroke-width="0.64" stroke-linecap="round" stroke-linejoin="round"/>
<path d="M199.475 297.6H198.246L198.412 212.691H200.857L199.475 297.6Z" fill="#263238" stroke="#263238" stroke-width="0.64" stroke-linecap="round" stroke-linejoin="round"/>
<path d="M201.555 213.99H158.048V267.11H201.555V213.99Z" fill="#263238" stroke="#263238" stroke-width="0.64" stroke-linecap="round" stroke-linejoin="round"/>
<path d="M189.542 213.99H146.035V267.11H189.542V213.99Z" fill="white" stroke="#263238" stroke-width="0.64" stroke-linecap="round" stroke-linejoin="round"/>
<path d="M277.414 297.6H274.643L273.254 212.691H278.803L277.414 297.6Z" fill="white" stroke="#263238" stroke-width="0.64" stroke-linecap="round" stroke-linejoin="round"/>
<path d="M277.414 297.6H276.192L276.358 212.691H278.803L277.414 297.6Z" fill="#263238" stroke="#263238" stroke-width="0.64" stroke-linecap="round" stroke-linejoin="round"/>
<path d="M302.777 297.6H300L298.617 212.691H304.16L302.777 297.6Z" fill="#263238" stroke="#263238" stroke-width="0.64" stroke-linecap="round" stroke-linejoin="round"/>
<path d="M302.777 297.6H301.555L301.715 212.691H304.159L302.777 297.6Z" fill="#263238" stroke="#263238" stroke-width="0.64" stroke-linecap="round" stroke-linejoin="round"/>
<path d="M305.913 209.492H139.603V215.335H305.913V209.492Z" fill="white" stroke="#263238" stroke-width="0.64" stroke-linecap="round" stroke-linejoin="round"/>
<path d="M305.913 209.492H139.603V212.41H305.913V209.492Z" fill="#263238" stroke="#263238" stroke-width="0.64" stroke-linecap="round" stroke-linejoin="round"/>
<path d="M305.913 209.492H281.363V215.335H305.913V209.492Z" fill="#263238" stroke="#263238" stroke-width="0.64" stroke-linecap="round" stroke-linejoin="round"/>
<path d="M311.29 204.8H135.091V210.643H311.29V204.8Z" fill="white" stroke="#263238" stroke-width="0.64" stroke-linecap="round" stroke-linejoin="round"/>
<path d="M311.29 204.8H286.739V210.643H311.29V204.8Z" fill="#263238" stroke="#263238" stroke-width="0.64" stroke-linecap="round" stroke-linejoin="round"/>
<path d="M186.88 219.092H148.8V237.652H186.88V219.092Z" fill="white" stroke="#263238" stroke-width="0.64" stroke-linecap="round" stroke-linejoin="round"/>
<path d="M172 226.451H163.68V229.331H172V226.451Z" fill="#263238" stroke="#263238" stroke-width="0.64" stroke-linecap="round" stroke-linejoin="round"/>
<path d="M186.88 242.451H148.8V261.011H186.88V242.451Z" fill="white" stroke="#263238" stroke-width="0.64" stroke-linecap="round" stroke-linejoin="round"/>
<path d="M172 249.811H163.68V252.691H172V249.811Z" fill="#263238" stroke="#263238" stroke-width="0.64" stroke-linecap="round" stroke-linejoin="round"/>
<path d="M245.497 247.981H256.876V225.095H245.497V247.981Z" fill="#263238"/>
<path d="M248.345 271.546H254.035V239.853H248.345V271.546Z" fill="#263238"/>
<path d="M253.504 269.108C253.504 269.108 258.285 274.535 270.573 276.423C277.063 277.421 283.821 278.663 289.683 281.767C293.453 283.764 300.96 288.135 300.96 293.127C300.966 293.86 300.792 294.583 300.453 295.233C300.114 295.884 299.621 296.441 299.016 296.856C298.412 297.271 297.715 297.531 296.986 297.614C296.258 297.697 295.52 297.599 294.838 297.33C294.156 297.062 293.55 296.63 293.074 296.072C292.598 295.515 292.266 294.849 292.107 294.133C291.948 293.417 291.967 292.673 292.163 291.967C292.358 291.26 292.725 290.612 293.229 290.08C290.159 285.462 285.4 282.234 279.975 281.088C270.631 279.053 263.808 279.885 250.663 271.143L253.504 269.108Z" fill="#263238"/>
<path d="M249.44 269.108C249.44 269.108 244.659 274.535 232.371 276.423C225.882 277.421 219.123 278.663 213.261 281.767C209.485 283.764 201.984 288.135 201.984 293.127C201.977 293.861 202.151 294.585 202.489 295.236C202.828 295.887 203.321 296.445 203.926 296.861C204.53 297.277 205.228 297.537 205.957 297.62C206.686 297.703 207.425 297.606 208.107 297.337C208.79 297.067 209.396 296.635 209.872 296.076C210.349 295.518 210.68 294.851 210.839 294.135C210.997 293.418 210.976 292.673 210.779 291.967C210.582 291.26 210.215 290.612 209.709 290.08C212.78 285.464 217.539 282.236 222.963 281.088C232.314 279.053 239.136 279.885 252.282 271.143L249.44 269.108Z" fill="#263238"/>
<path d="M249.249 297.6H253.543C253.776 297.6 253.965 297.411 253.965 297.178V289.626C253.965 289.392 253.776 289.203 253.543 289.203H249.249C249.015 289.203 248.826 289.392 248.826 289.626V297.178C248.826 297.411 249.015 297.6 249.249 297.6Z" fill="#263238"/>
<path d="M250.176 297.6H252.615V269.869H250.176V297.6Z" fill="#263238"/>
<path d="M278.746 159.014C277.325 166.591 276.469 174.262 276.186 181.965C276 187.904 275.904 192.992 275.814 197.478C275.546 211.424 275.392 219.155 273.197 221.235C272.915 221.427 271.098 222.547 267.296 222.867C266.234 222.957 262.854 223.002 258.259 223.027C243.686 222.982 228.371 222.861 228.128 222.861H227.238C227.2 222.861 227.168 222.931 227.136 222.963C218.381 222.912 216.128 222.861 215.968 222.861H215.078C213.242 224.454 214.336 226.502 215.936 226.515C217.133 226.515 237.99 226.701 252.256 226.701C254.778 226.701 257.152 226.701 259.258 226.701H268.896C276.365 226.701 282.554 226.65 284.256 226.509C289.536 226.074 291.904 224.288 292.154 224.083C295.674 220.96 295.808 214.106 296.134 197.555C296.218 193.075 296.32 187.994 296.499 182.08C296.787 174.344 297.664 166.642 299.123 159.04L278.746 159.014Z" fill="#263238"/>
<path d="M165.6 278.509L167.04 286.029C167.04 286.029 165.76 288.749 160.8 290.989C155.84 293.229 153.44 294.189 153.44 294.829C153.44 295.469 153.12 296.909 154.4 297.389C155.68 297.869 182.88 297.389 182.88 297.389C182.88 297.389 184.32 296.749 184.32 293.709C184.32 290.669 183.04 285.069 183.04 283.789C183.04 282.509 182.137 279.424 182.137 278.989C182.137 278.553 171.2 279.149 171.2 279.149C171.2 279.149 168 276.109 165.6 278.509Z" fill="white" stroke="#263238" stroke-width="0.64" stroke-linecap="round" stroke-linejoin="round"/>
<path d="M171.2 279.149C171.2 279.149 172 286.349 172.48 286.829C172.96 287.309 183.04 287.309 183.04 287.309" fill="white"/>
<path d="M171.2 279.149C171.2 279.149 172 286.349 172.48 286.829C172.96 287.309 183.04 287.309 183.04 287.309" stroke="#263238" stroke-width="0.64" stroke-linecap="round" stroke-linejoin="round"/>
<path d="M183.04 283.789L171.84 283.949" stroke="#263238" stroke-width="0.64" stroke-linecap="round" stroke-linejoin="round"/>
<path d="M153.44 296.109H184" stroke="#263238" stroke-width="0.64" stroke-linecap="round" stroke-linejoin="round"/>
<path d="M185.6 188.32C185.6 188.32 176.73 218.182 175.642 222.298C174.554 226.413 180.839 262.547 180.839 263.194C180.839 263.84 181.703 265.792 181.703 267.955C181.703 270.118 180.839 270.765 181.274 271.418C181.709 272.07 183.194 273.581 183.002 274.88C182.936 275.881 182.475 276.816 181.722 277.478C181.245 277.977 180.651 278.348 179.994 278.56H174.797C174.797 278.56 173.517 268.819 170.036 243.072C166.554 217.325 172.205 202.605 173.287 197.843C174.023 194.771 175.112 191.795 176.532 188.973L185.6 188.32Z" fill="#263238" stroke="#263238" stroke-width="0.64" stroke-linecap="round" stroke-linejoin="round"/>
<path d="M158.24 278.509L159.68 286.029C159.68 286.029 158.4 288.749 153.44 290.989C148.48 293.229 146.08 294.189 146.08 294.829C146.08 295.469 145.76 296.909 147.04 297.389C148.32 297.869 175.52 297.389 175.52 297.389C175.52 297.389 176.96 296.749 176.96 293.709C176.96 290.669 175.68 285.069 175.68 283.789C175.68 282.509 174.778 279.424 174.778 278.989C174.778 278.553 163.84 279.149 163.84 279.149C163.84 279.149 160.64 276.109 158.24 278.509Z" fill="white" stroke="#263238" stroke-width="0.64" stroke-linecap="round" stroke-linejoin="round"/>
<path d="M163.84 279.149C163.84 279.149 164.64 286.349 165.12 286.829C165.6 287.309 175.68 287.309 175.68 287.309" fill="white"/>
<path d="M163.84 279.149C163.84 279.149 164.64 286.349 165.12 286.829C165.6 287.309 175.68 287.309 175.68 287.309" stroke="#263238" stroke-width="0.64" stroke-linecap="round" stroke-linejoin="round"/>
<path d="M175.68 283.789L164.48 283.949" stroke="#263238" stroke-width="0.64" stroke-linecap="round" stroke-linejoin="round"/>
<path d="M146.08 296.109H176.64" stroke="#263238" stroke-width="0.64" stroke-linecap="round" stroke-linejoin="round"/>
<path d="M149.894 188.32C149.894 188.32 149.677 207.149 150.758 215.155C151.84 223.162 155.955 241.773 156.602 251.942C157.248 262.112 158.336 266.88 158.336 266.88C158.336 266.88 156.8 268.16 156.8 269.44C156.8 270.72 157.664 270.72 157.44 272.691C157.216 274.662 156.358 275.283 157.011 276.154C157.664 277.024 158.093 278.746 160.256 279.181C162.419 279.616 172.589 279.398 174.752 278.963C176.915 278.528 177.997 276.365 177.997 274.637C177.997 272.909 177.357 271.61 177.357 269.658C177.357 267.706 178.438 265.984 178.438 264.685C178.438 263.386 178.003 262.733 178.003 261.434C178.003 260.134 175.194 239.366 175.194 235.04C175.194 230.714 174.976 215.994 175.622 212.314C176.269 208.634 179.52 191.11 179.52 191.11L149.894 188.32Z" fill="#A000FD" stroke="#263238" stroke-width="0.64" stroke-linecap="round" stroke-linejoin="round"/>
<path d="M163.609 194.669C166.179 195.55 168.858 196.074 171.571 196.224C173.655 196.282 175.733 196.477 177.792 196.806L178.957 191.366L163.609 194.669Z" fill="#263238" stroke="#263238" stroke-width="0.64" stroke-linecap="round" stroke-linejoin="round"/>
<path d="M161.235 195.603C161.235 195.603 162.297 225.338 164.435 235.251C166.572 245.165 169.388 261.446 168.684 263.571C167.98 265.696 166.912 270.65 166.912 270.65C166.912 270.65 170.809 269.946 170.809 272.064C170.809 274.182 165.145 275.61 166.56 276.672C167.974 277.734 169.382 278.899 169.382 278.899" stroke="#263238" stroke-width="0.64" stroke-linecap="round" stroke-linejoin="round"/>
<path d="M173.811 271.597C173.811 271.597 162.061 273.517 165.395 274.157C168.729 274.797 175.085 273.997 175.405 273.203C175.725 272.41 174.765 271.437 173.811 271.597Z" fill="#263238" stroke="#263238" stroke-width="0.64" stroke-linecap="round" stroke-linejoin="round"/>
<path d="M121.946 66.0159L121.619 79.3023L134.15 79.1935L134.259 65.9071L121.946 66.0159Z" fill="#A000FD"/>
<path d="M136.205 90.5343C136.205 90.5343 133.504 87.8335 132.313 85.3503C131.123 82.8671 129.401 81.3567 129.401 79.6287C129.401 77.9007 130.157 73.8687 129.83 72.2815C129.504 70.6943 129.83 67.3151 130.912 67.3151C131.163 67.315 131.411 67.3719 131.637 67.4813C131.863 67.5908 132.061 67.75 132.217 67.947C132.373 68.1441 132.482 68.3738 132.536 68.6191C132.591 68.8643 132.589 69.1186 132.531 69.3631C132.313 70.4447 133.171 74.2271 133.171 74.2271C133.171 74.2271 134.035 66.9887 134.144 66.5471C134.253 66.1055 135.763 66.1119 136.416 66.4383C137.069 66.7647 137.817 66.6495 137.817 68.0575C137.817 69.4655 137.491 71.0783 137.491 71.4047C137.491 71.7311 140.518 73.4591 140.627 74.7519C140.736 76.0447 140.409 79.1807 139.654 80.5119C139.138 81.3172 138.708 82.1754 138.374 83.0719C138.265 83.5007 141.293 88.0382 141.293 88.0382L136.205 90.5343Z" fill="white" stroke="#263238" stroke-width="0.64" stroke-linecap="round" stroke-linejoin="round"/>
<path d="M141.241 85.9709L133.881 91.5965C133.881 91.5965 146.432 117.561 146.867 118.4C147.302 119.238 156.384 124.896 156.384 124.896L170.016 108.013C170.016 108.013 152.921 102.605 152.493 101.958C152.064 101.312 141.241 85.9709 141.241 85.9709Z" fill="#263238" stroke="#263238" stroke-width="0.64" stroke-linecap="round" stroke-linejoin="round"/>
<path d="M149.92 181.389L149.28 191.469C149.28 191.469 157.6 194.989 166.56 194.829C175.52 194.669 187.52 191.149 187.52 191.149L189.28 181.229C189.28 181.229 167.68 182.989 161.12 182.349C154.56 181.709 149.92 181.389 149.92 181.389Z" fill="white" stroke="#263238" stroke-width="0.64" stroke-linecap="round" stroke-linejoin="round"/>
<path d="M143.52 178.189L143.04 181.069C143.04 181.069 149.818 184.768 164.8 186.189C174.021 187.039 183.318 186.06 192.16 183.309L192.32 178.349C184.352 180.248 176.191 181.215 168 181.229C159.76 181.015 151.562 179.997 143.52 178.189Z" fill="#263238" stroke="#263238" stroke-width="0.64" stroke-linecap="round" stroke-linejoin="round"/>
<path d="M155.68 118.668C155.68 118.668 150.4 127.948 148.64 135.148C146.88 142.348 143.36 175.628 142.88 177.548C142.4 179.468 153.6 183.308 160.96 183.468C168.32 183.628 184.8 183.948 187.68 182.828C190.56 181.708 193.28 180.108 193.28 178.348C193.28 176.588 193.44 170.028 193.44 164.748C193.44 159.468 191.84 131.628 190.4 125.228C188.96 118.828 188 114.348 187.52 113.548C187.04 112.748 183.52 108.908 176.32 109.388C170.7 109.802 165.239 111.441 160.32 114.188C158.494 115.363 156.918 116.886 155.68 118.668Z" fill="#263238" stroke="#263238" stroke-width="0.64" stroke-linecap="round" stroke-linejoin="round"/>
<path d="M107.424 129.011C107.424 129.011 104.826 130.093 104.608 132.691C104.391 135.289 109.159 137.881 111.968 141.779C114.778 145.677 118.458 149.76 118.458 149.76L124.09 157.549L130.797 151.923L113.485 131.84C113.485 131.84 114.349 129.92 113.267 129.241C112.357 128.818 111.372 128.579 110.369 128.54C109.366 128.5 108.365 128.66 107.424 129.011Z" fill="white" stroke="#263238" stroke-width="0.64" stroke-linecap="round" stroke-linejoin="round"/>
<path d="M107.859 135.072L127.36 128.576C127.36 128.576 128.64 133.991 134.496 139.616C138.007 142.999 141.771 146.11 145.754 148.922L128.224 158.874L107.859 135.072Z" fill="white" stroke="#263238" stroke-width="0.64" stroke-linecap="round" stroke-linejoin="round"/>
<path d="M107.859 135.072C108.718 134.108 109.248 132.895 109.37 131.61C109.428 131.016 109.263 130.421 108.909 129.942C108.554 129.462 108.034 129.13 107.45 129.011L126.707 123.385C126.707 123.385 130.387 124.665 127.347 128.576L107.859 135.072Z" fill="white" stroke="#263238" stroke-width="0.64" stroke-linecap="round" stroke-linejoin="round"/>
<path d="M133.664 155.648C133.664 155.648 129.338 155.008 129.12 153.728C128.902 152.448 128.038 149.619 127.2 148.537C126.362 147.456 122.221 145.293 120.922 143.776C119.622 142.259 118.758 140.096 117.894 140.313C117.03 140.531 115.731 141.395 116.16 142.233C116.589 143.072 118.541 146.784 118.541 146.784L118.976 148.294C118.976 148.294 115.078 147.654 114.432 147.43C114.243 147.377 114.045 147.37 113.853 147.412C113.662 147.453 113.483 147.54 113.333 147.667C113.183 147.793 113.067 147.955 112.994 148.136C112.921 148.318 112.894 148.515 112.915 148.71C112.915 149.792 112.051 149.792 113.133 150.438C114.214 151.085 115.514 151.955 115.514 151.955C115.514 151.955 117.03 155.417 117.434 156.064C117.837 156.71 121.331 158.233 121.978 158.662C122.624 159.091 126.093 160.179 127.821 160.582C129.549 160.985 133.446 162.534 133.446 162.534L134.528 157.555L133.664 155.648Z" fill="white" stroke="#263238" stroke-width="0.64" stroke-linecap="round" stroke-linejoin="round"/>
<path d="M179.539 125.786C179.539 125.786 179.104 144.179 179.104 145.043C179.104 145.907 179.744 163.654 177.824 165.165C175.904 166.675 166.355 168.627 152.506 168.198C138.656 167.77 132.595 164.736 132.595 164.736L133.677 155.648L160.077 153.728C160.077 153.728 157.267 133.606 157.696 126.682C158.125 119.757 163.757 116.077 163.757 116.077" fill="#263238"/>
<path d="M179.539 125.786C179.539 125.786 179.104 144.179 179.104 145.043C179.104 145.907 179.744 163.654 177.824 165.165C175.904 166.675 166.355 168.627 152.506 168.198C138.656 167.77 132.595 164.736 132.595 164.736L133.677 155.648L160.077 153.728C160.077 153.728 157.267 133.606 157.696 126.682C158.125 119.757 163.757 116.077 163.757 116.077" stroke="#263238" stroke-width="0.64" stroke-linecap="round" stroke-linejoin="round"/>
<path d="M150.4 169.005C150.4 169.005 176.602 169.92 177.984 166.701C179.367 163.482 179.36 131.763 179.36 131.763" stroke="#707070" stroke-width="0.64" stroke-linecap="round" stroke-linejoin="round"/>
<path d="M161.92 119.808C161.92 119.808 156.396 125.785 157.318 133.6C158.24 141.414 160.083 153.696 160.083 153.696L149.964 154.291" stroke="#707070" stroke-width="0.64" stroke-linecap="round" stroke-linejoin="round"/>
<path d="M150.739 69.8367C150.739 69.8367 147.11 76.1151 147.808 76.9471C148.506 77.7791 147.949 79.3215 147.949 79.3215C147.949 79.3215 144.32 82.1119 144.602 83.0847C144.883 84.0575 147.802 86.7135 147.802 86.7135C147.802 86.7135 148.358 94.2463 149.082 94.9439C149.805 95.6415 154.522 96.4735 155.482 96.6143C156.011 96.6797 156.529 96.822 157.018 97.0366L159.802 112.096L175.424 98.0158L172.915 91.3214C172.915 91.3214 171.52 82.3614 171.635 78.2142C171.75 74.067 164.518 69.0046 160.198 67.7502C155.878 66.4958 150.739 69.8367 150.739 69.8367Z" fill="white" stroke="#263238" stroke-width="0.64" stroke-linecap="round" stroke-linejoin="round"/>
<path d="M153.664 61.3247C153.664 61.3247 150.042 57.5615 145.715 60.4927C141.389 63.4239 142.65 68.1727 146.554 69.8367C150.458 71.5007 155.059 70.2527 153.53 71.9295C152 73.6063 151.61 77.2287 153.946 77.9263C156.282 78.6239 155.898 81.2735 155.898 82.4063C155.898 83.5391 157.818 83.3855 158.272 82.4063C158.726 81.4271 159.802 78.7839 162.451 79.8975C165.101 81.0111 164.966 87.1487 163.987 88.6847C163.008 90.2207 162.035 90.0799 162.035 90.0799C162.035 90.0799 163.571 90.6367 162.592 92.4479L161.619 94.2655C161.619 94.2655 163.846 96.9151 169.427 95.9359C175.008 94.9567 176.262 92.4479 175.424 90.3615C174.586 88.2751 172.634 87.9871 174.726 84.9215C176.819 81.8559 181.984 78.2207 181.562 71.2511C181.286 66.6495 170.406 62.2911 170.406 62.2911C170.406 62.2911 172.915 58.1055 167.206 55.4559C161.498 52.8063 154.938 55.8783 155.354 58.6559C155.77 61.4335 153.664 61.3247 153.664 61.3247Z" fill="#263238" stroke="#263238" stroke-width="0.64" stroke-linecap="round" stroke-linejoin="round"/>
<path d="M147.769 76.4477C147.769 76.4477 145.996 75.9741 145.849 76.8125C145.702 77.6509 145.849 81.8301 145.849 81.8301C146.473 82.2182 147.216 82.3682 147.942 82.2525C148.921 81.9709 148.358 78.4829 148.358 78.4829" stroke="#263238" stroke-width="0.64" stroke-linecap="round" stroke-linejoin="round"/>
<path d="M158.829 81.1327L145.984 79.0079L145.997 78.2015L158.829 81.1327Z" fill="#263238" stroke="#263238" stroke-width="0.64" stroke-linecap="round" stroke-linejoin="round"/>
<path d="M177.242 93.6895C177.242 93.6895 170.125 98.8479 165.242 104.147C160.358 109.446 154.502 115.309 154.24 117.12C153.978 118.931 154.515 121.721 157.306 118.79C160.096 115.859 165.254 111.961 169.165 111.68C173.075 111.398 179.066 113.357 182.131 113.773C185.197 114.189 187.155 115.053 188.269 113.357C189.382 111.661 186.458 107.917 186.458 105.958C186.458 104 186.874 100.659 185.478 98.2783C184.083 95.8975 179.61 92.9919 177.242 93.6895Z" fill="#757575" stroke="#263238" stroke-width="0.64" stroke-linecap="round" stroke-linejoin="round"/>
<path d="M186.355 100.595C185.959 101.95 185.418 103.259 184.742 104.499C183.929 105.709 172.493 108 172.493 108C172.493 108 181.913 107.462 183.661 107.462C185.408 107.462 187.43 109.075 187.43 109.075L186.489 106.515C186.489 106.515 186.88 101.811 186.355 100.595Z" fill="#263238" stroke="#263238" stroke-width="0.64" stroke-linecap="round" stroke-linejoin="round"/>
<path d="M20.48 297.6H312.96" stroke="#263238" stroke-width="0.64" stroke-linecap="round" stroke-linejoin="round"/>
</svg>
