<svg width="13" height="13" viewBox="0 0 13 13" fill="none" xmlns="http://www.w3.org/2000/svg">
<path d="M4.64865 10.1591H4.39713C2.38498 10.1591 1.37891 9.65608 1.37891 7.14089V4.62571C1.37891 2.61356 2.38498 1.60748 4.39713 1.60748H8.42143C10.4336 1.60748 11.4397 2.61356 11.4397 4.62571V7.14089C11.4397 9.15304 10.4336 10.1591 8.42143 10.1591H8.16991C8.01397 10.1591 7.86306 10.2346 7.76748 10.3603L7.01292 11.3664C6.68092 11.8091 6.13764 11.8091 5.80563 11.3664L5.05108 10.3603C4.97059 10.2497 4.78447 10.1591 4.64865 10.1591Z" stroke="white" stroke-width="0.724374" stroke-miterlimit="10" stroke-linecap="round" stroke-linejoin="round"/>
<path d="M3.89453 4.62567H8.9249" stroke="white" stroke-width="0.724374" stroke-linecap="round" stroke-linejoin="round"/>
<path d="M3.89453 7.14087H6.91275" stroke="white" stroke-width="0.724374" stroke-linecap="round" stroke-linejoin="round"/>
</svg>
