<svg width="27" height="28" viewBox="0 0 27 28" fill="none" xmlns="http://www.w3.org/2000/svg">
<circle cx="13.8357" cy="13.9875" r="12.6765" stroke="#F3F3F3" stroke-width="0.905467"/>
<path d="M9.96215 12.8808C9.35348 12.8808 8.85547 13.3788 8.85547 13.9875C8.85547 14.5962 9.35348 15.0942 9.96215 15.0942C10.5708 15.0942 11.0688 14.5962 11.0688 13.9875C11.0688 13.3788 10.5708 12.8808 9.96215 12.8808Z" fill="#7F879E"/>
<path d="M17.7082 12.8808C17.0996 12.8808 16.6016 13.3788 16.6016 13.9875C16.6016 14.5962 17.0996 15.0942 17.7082 15.0942C18.3169 15.0942 18.8149 14.5962 18.8149 13.9875C18.8149 13.3788 18.3169 12.8808 17.7082 12.8808Z" fill="#7F879E"/>
<path d="M13.8352 12.8808C13.2265 12.8808 12.7285 13.3788 12.7285 13.9875C12.7285 14.5962 13.2265 15.0942 13.8352 15.0942C14.4439 15.0942 14.9419 14.5962 14.9419 13.9875C14.9419 13.3788 14.4439 12.8808 13.8352 12.8808Z" fill="#7F879E"/>
</svg>
