<svg width="28" height="28" viewBox="0 0 28 28" fill="none" xmlns="http://www.w3.org/2000/svg">
<path d="M3.5 3.5L24.5 24.5M12.25 12.4565C11.8569 12.9016 11.6483 13.4798 11.6667 14.0734C11.6851 14.6669 11.9291 15.2311 12.349 15.651C12.7689 16.0709 13.3331 16.3149 13.9266 16.3333C14.5202 16.3517 15.0984 16.1431 15.5435 15.75" stroke="#BFC1C7" stroke-width="1.5" stroke-linecap="round" stroke-linejoin="round"/>
<path d="M8.589 8.82117C6.62667 10.1967 4.99217 12.1567 3.5 14C5.70383 17.4895 9.66233 21 14 21C15.8083 21 17.5502 20.3898 19.1275 19.425M14 7C18.676 7 21.8178 10.6843 24.5 14C24.1156 14.6076 23.6956 15.1919 23.2423 15.75" stroke="#BFC1C7" stroke-width="1.5" stroke-linecap="round" stroke-linejoin="round"/>
</svg>
