<svg width="48" height="48" viewBox="0 0 48 48" fill="none" xmlns="http://www.w3.org/2000/svg">
<g clip-path="url(#clip0_7827_49314)">
<rect width="48" height="48" rx="24" fill="#A000FD"/>
<path opacity="0.2" d="M24 48C37.2548 48 48 37.2548 48 24C48 10.7452 37.2548 0 24 0C10.7452 0 0 10.7452 0 24C0 37.2548 10.7452 48 24 48Z" fill="url(#paint0_linear_7827_49314)"/>
<rect opacity="0.5" x="14" y="21" width="20" height="13" rx="5" fill="#EDEFFF"/>
<path d="M27.8803 17.5675L24.5303 14.2175C24.2403 13.9275 23.7603 13.9275 23.4703 14.2175L20.1203 17.5675C19.8303 17.8575 19.8303 18.3375 20.1203 18.6275C20.4103 18.9175 20.8903 18.9175 21.1803 18.6275L23.2503 16.5575V27.2475C23.2503 27.6575 23.5903 27.9975 24.0003 27.9975C24.4103 27.9975 24.7503 27.6575 24.7503 27.2475V16.5575L26.8203 18.6275C26.9703 18.7775 27.1603 18.8475 27.3503 18.8475C27.5403 18.8475 27.7303 18.7775 27.8803 18.6275C28.1803 18.3375 28.1803 17.8675 27.8803 17.5675Z" fill="white"/>
</g>
<defs>
<linearGradient id="paint0_linear_7827_49314" x1="24" y1="0" x2="24" y2="48" gradientUnits="userSpaceOnUse">
<stop stop-color="white"/>
<stop offset="1" stop-color="white" stop-opacity="0"/>
</linearGradient>
<clipPath id="clip0_7827_49314">
<rect width="48" height="48" rx="24" fill="white"/>
</clipPath>
</defs>
</svg>
