<svg width="58" height="59" viewBox="0 0 58 59" fill="none" xmlns="http://www.w3.org/2000/svg">
<g style="mix-blend-mode:multiply">
<rect x="0.149414" y="0.645996" width="57.0712" height="57.7806" rx="9.6626" fill="#BBDCFD"/>
</g>
<path d="M28.0622 20.6953H19.2052C16.8351 20.6953 14.9639 22.5898 14.9639 24.9894V33.5775C14.9639 35.9772 16.8351 37.8716 19.2052 37.8716H28.0622C30.4323 37.8716 32.3035 35.9772 32.3035 33.5775V24.9894C32.4283 22.5898 30.4323 20.6953 28.0622 20.6953Z" fill="#1F8FFF"/>
<path d="M41.1601 22.4634C40.2869 21.9582 39.1642 21.9582 38.2909 22.4634L38.1662 22.5897L34.9228 24.863C34.5486 25.1156 34.4238 25.4945 34.4238 25.8734V32.946C34.4238 33.3248 34.6733 33.7037 34.9228 33.9563L38.0415 36.2297L38.1662 36.356C38.5404 36.6085 39.0394 36.7348 39.5384 36.7348C40.0374 36.7348 40.6611 36.6085 41.0354 36.356C41.7838 35.8508 42.2828 34.9667 42.2828 34.0826V24.7367C42.4076 23.8526 41.9086 22.9685 41.1601 22.4634Z" fill="#1F8FFF"/>
</svg>
