<svg width="131" height="42" viewBox="0 0 131 42" fill="none" xmlns="http://www.w3.org/2000/svg">
<path d="M69.021 10.5526C69.021 12.0663 67.8341 13.2851 66.3611 13.2851C64.8881 13.2851 63.702 12.0663 63.702 10.5526C63.702 9.039 64.8476 7.82018 66.3611 7.82018C67.8758 7.86218 69.021 9.08142 69.021 10.5526ZM58.056 16.0604V16.7332C58.056 16.7332 56.7882 15.0508 54.0879 15.0508C49.6288 15.0508 46.1507 18.5405 46.1507 23.375C46.1507 28.1679 49.5879 31.6992 54.0879 31.6992C56.8291 31.6992 58.056 29.9756 58.056 29.9756V30.69C58.056 31.0264 58.3021 31.278 58.6291 31.278H61.9425V15.4699H58.6291C58.3021 15.4712 58.056 15.766 58.056 16.0604ZM58.056 26.1919C57.443 27.1171 56.2152 27.916 54.7426 27.916C52.1244 27.916 50.1193 26.2343 50.1193 23.375C50.1193 20.5161 52.1244 18.8345 54.7426 18.8345C56.1747 18.8345 57.4838 19.6753 58.056 20.5581V26.1919ZM64.3976 15.4712H68.3249V31.2792H64.3976V15.4712ZM123.066 15.0503C120.366 15.0503 119.097 16.7328 119.097 16.7328V7.86218H115.17V31.2792H118.484C118.811 31.2792 119.056 30.9848 119.056 30.6904V29.976C119.056 29.976 120.325 31.6997 123.024 31.6997C127.484 31.6997 130.962 28.1692 130.962 23.3763C130.962 18.5833 127.484 15.0503 123.066 15.0503ZM122.411 27.8735C120.897 27.8735 119.711 27.0755 119.097 26.1499V20.5161C119.711 19.6753 121.02 18.7925 122.411 18.7925C125.03 18.7925 127.034 20.4741 127.034 23.333C127.034 26.1919 125.03 27.8735 122.411 27.8735ZM113.125 21.9042V31.3212H109.197V22.3662C109.197 19.7601 108.378 18.7085 106.17 18.7085C104.984 18.7085 103.757 19.3393 102.978 20.2645V31.2797H99.0515V15.4716H102.16C102.487 15.4716 102.733 15.766 102.733 16.0604V16.7332C103.878 15.5136 105.392 15.0508 106.905 15.0508C108.624 15.0508 110.056 15.556 111.202 16.5648C112.592 17.7421 113.125 19.2553 113.125 21.9042ZM89.5175 15.0503C86.8179 15.0503 85.5493 16.7328 85.5493 16.7328V7.86218H81.622V31.2792H84.9354C85.2628 31.2792 85.5084 30.9848 85.5084 30.6904V29.976C85.5084 29.976 86.777 31.6997 89.4766 31.6997C93.9364 31.6997 97.4138 28.1692 97.4138 23.3763C97.4547 18.5829 93.9773 15.0503 89.5175 15.0503ZM88.8627 27.8735C87.3493 27.8735 86.1632 27.0755 85.5493 26.1499V20.5161C86.1632 19.6753 87.4723 18.7925 88.8627 18.7925C91.4817 18.7925 93.486 20.4741 93.486 23.333C93.486 26.1919 91.4817 27.8735 88.8627 27.8735ZM78.226 15.0503C79.4121 15.0503 80.0259 15.2612 80.0259 15.2612V19.0025C80.0259 19.0025 76.753 17.8672 74.7078 20.2641V31.3208H70.7797V15.4712H74.0939C74.4213 15.4712 74.6661 15.7656 74.6661 16.06V16.7328C75.4034 15.8496 76.999 15.0503 78.226 15.0503ZM37.4369 29.8496C37.2326 29.3452 37.0278 28.7988 36.8235 28.3359C36.4957 27.5795 36.1683 26.8643 35.8826 26.1919L35.8417 26.1499C33.0183 19.8433 29.9914 13.4535 26.7998 7.14778L26.6772 6.89494C26.3415 6.24079 26.0144 5.58205 25.6959 4.91888C25.2863 4.16163 24.8776 3.36365 24.2229 2.6064C22.9138 0.924754 21.0316 -0.000488281 19.0273 -0.000488281C16.9813 -0.000488281 15.1405 0.924758 13.7909 2.52199C13.177 3.27839 12.7266 4.07722 12.3179 4.83447C11.9986 5.49721 11.6715 6.15594 11.3366 6.81052L11.2136 7.06335C8.06322 13.3691 4.99501 19.7593 2.17204 26.0655L2.13077 26.149C1.84467 26.8227 1.51688 27.5371 1.1895 28.2931C0.985145 28.7559 0.780789 29.2603 0.576433 29.8067C0.0442897 31.362 -0.119612 32.8336 0.0855618 34.3477C0.535554 37.501 2.58075 40.1486 5.40413 41.3267C6.46801 41.7895 7.57276 41.9995 8.71797 41.9995C9.04535 41.9995 9.45407 41.9575 9.78186 41.9151C11.1322 41.7471 12.5231 41.2851 13.8735 40.4863C15.5508 39.519 17.1464 38.1322 18.9464 36.1142C20.7464 38.1322 22.3828 39.519 24.0193 40.4863C25.3701 41.2851 26.7606 41.7471 28.1105 41.9151C28.4379 41.958 28.8474 41.9995 29.1748 41.9995C30.3204 41.9995 31.4657 41.7895 32.4883 41.3267C35.3525 40.1486 37.3568 37.459 37.8072 34.3477C38.1321 32.8765 37.9687 31.4057 37.4369 29.8496ZM18.986 32.0356C16.7765 29.1768 15.3444 26.4863 14.854 24.2167C14.6496 23.2494 14.6083 22.4086 14.7314 21.6518C14.8127 20.9789 15.0587 20.3901 15.3861 19.8857C16.1635 18.7513 17.4726 18.0361 18.9865 18.0361C20.5007 18.0361 21.8507 18.7089 22.5872 19.8857C22.9146 20.3901 23.1598 20.9794 23.2424 21.6518C23.3646 22.409 23.3237 23.2914 23.1194 24.2167C22.6269 26.4443 21.1947 29.1352 18.986 32.0356ZM35.3092 34.0117C35.0231 36.1978 33.5909 38.0902 31.5866 38.9311C30.6049 39.351 29.5406 39.4775 28.4776 39.351C27.455 39.2246 26.4315 38.8882 25.3685 38.2582C23.8955 37.4166 22.4229 36.1142 20.7043 34.1797C23.4042 30.7748 25.0407 27.6631 25.6546 24.8891C25.9411 23.5854 25.9824 22.4086 25.8589 21.3149C25.6959 20.2641 25.3272 19.2969 24.7546 18.4561C23.4855 16.5636 21.3578 15.4712 18.9856 15.4712C16.6135 15.4712 14.4857 16.6064 13.2175 18.4561C12.6449 19.2969 12.2762 20.2641 12.1127 21.3149C11.9492 22.4086 11.9897 23.6274 12.3171 24.8891C12.9306 27.6631 14.6079 30.8164 17.267 34.2217C15.5897 36.1558 14.0758 37.4594 12.6028 38.3002C11.5389 38.9311 10.5167 39.2675 9.49412 39.3931C8.38978 39.5195 7.32549 39.3511 6.38464 38.9731C4.38031 38.1322 2.94819 36.2398 2.66209 34.0537C2.53947 33.0029 2.62081 31.9521 3.03034 30.7748C3.15254 30.354 3.35771 29.934 3.56207 29.4296C3.84858 28.7568 4.17514 28.0415 4.50293 27.3271L4.54421 27.2435C7.36678 20.9789 10.3941 14.5888 13.5445 8.36701L13.6671 8.11418C13.9949 7.48419 14.3222 6.81136 14.6492 6.18053C14.9766 5.50771 15.3444 4.87688 15.7948 4.33005C16.6539 3.32207 17.7991 2.77482 19.0678 2.77482C20.3364 2.77482 21.4816 3.32207 22.3408 4.33005C22.7912 4.87814 23.159 5.50897 23.4864 6.18053C23.8142 6.81136 24.1415 7.48419 24.4681 8.11418L24.5911 8.36701C27.6934 14.6146 30.6806 20.9219 33.5509 27.2855V27.3275C33.8787 28.0012 34.1648 28.7572 34.4922 29.4309C34.6965 29.9344 34.9013 30.3544 35.0239 30.7753C35.3505 31.8672 35.4731 32.9189 35.3092 34.0117Z" fill="#2D2D2D"/>
</svg>
