<svg width="112" height="36" viewBox="0 0 112 36" fill="none" xmlns="http://www.w3.org/2000/svg">
<path d="M15.1933 27.9281C19.3613 27.9281 22.5021 26.5686 24.9608 24.0142C27.4918 21.4882 28.2776 17.9517 28.2776 15.0908C28.2776 14.2025 28.2092 13.3879 28.0726 12.7039H15.1933V16.5184H24.3487C24.0754 18.6641 23.3551 20.2308 22.2664 21.3207C20.9317 22.6462 18.85 24.1135 15.1933 24.1135C9.55707 24.1135 5.14905 19.5837 5.14905 13.964C5.14905 8.34437 9.55707 3.81173 15.1933 3.81173C18.2316 3.81173 20.456 5.00662 22.093 6.53926L24.7928 3.84863C22.5021 1.67171 19.4638 0 15.1933 0C7.47079 0 0.980469 6.26395 0.980469 13.964C0.980469 21.6613 7.47079 27.9281 15.1933 27.9281ZM38.7004 27.9281C43.6855 27.9281 47.7511 24.1135 47.7511 18.9338C47.7511 13.7256 43.6855 9.94513 38.7004 9.94513C33.7068 9.94513 29.6413 13.7256 29.6413 18.9338C29.6413 24.1135 33.7068 27.9281 38.7004 27.9281ZM38.7004 24.386C35.9645 24.386 33.6043 22.1381 33.6043 18.9338C33.6043 15.701 35.9645 13.4901 38.7004 13.4901C41.4307 13.4901 43.788 15.701 43.788 18.9338C43.788 22.1381 41.4307 24.386 38.7004 24.386ZM58.4444 27.9281C63.4324 27.9281 67.4979 24.1135 67.4979 18.9338C67.4979 13.7256 63.4324 9.94513 58.4444 9.94513C53.4536 9.94513 49.3881 13.7256 49.3881 18.9338C49.3881 24.1135 53.4536 27.9281 58.4444 27.9281ZM58.4444 24.386C55.7113 24.386 53.3511 22.1381 53.3511 18.9338C53.3511 15.701 55.7113 13.4901 58.4444 13.4901C61.1775 13.4901 63.5349 15.701 63.5349 18.9338C63.5349 22.1381 61.1775 24.386 58.4444 24.386ZM77.8496 36C82.4931 36 86.4276 33.2781 86.4276 26.6339V10.4901H82.6667V11.9546H82.5301C81.639 10.8988 79.9308 9.94513 77.7841 9.94513C73.2716 9.94513 69.1406 13.8959 69.1406 18.9707C69.1406 24.0142 73.2716 27.9281 77.7841 27.9281C79.9308 27.9281 81.639 26.9745 82.5301 25.8846H82.6667V27.1788C82.6667 30.6216 80.8219 32.4579 77.8496 32.4579C75.4268 32.4579 73.9207 30.7237 73.3029 29.2535L69.8552 30.6868C70.8488 33.0738 73.4766 36 77.8496 36ZM78.1201 24.386C75.3898 24.386 73.098 22.1069 73.098 18.9707C73.098 15.8032 75.3898 13.4901 78.1201 13.4901C80.8219 13.4901 82.9401 15.8032 82.9401 18.9707C82.9401 22.1069 80.8219 24.386 78.1201 24.386ZM93.1209 0.953643H89.1579V27.3832H93.1209V0.953643ZM103.985 27.9281C108.116 27.9281 110.51 25.4106 111.501 23.9432L108.424 21.9026C107.402 23.3955 106.001 24.386 103.985 24.386C101.969 24.386 100.532 23.4664 99.6121 21.6613L111.672 16.6859L111.262 15.667C110.51 13.6575 108.219 9.94513 103.541 9.94513C98.8947 9.94513 95.0341 13.5922 95.0341 18.9338C95.0341 23.9773 98.8605 27.9281 103.985 27.9281ZM98.963 18.6641C98.8605 15.193 101.662 13.4191 103.678 13.4191C105.249 13.4191 106.582 14.2025 107.029 15.3264L98.963 18.6641Z" fill="#2D2D2D"/>
</svg>
