<svg width="134" height="67" viewBox="0 0 134 67" fill="none" xmlns="http://www.w3.org/2000/svg">
<path d="M45.0038 16.4702H14.5756C12.7178 16.4702 11.2119 17.9875 11.2119 19.8592V50.5022C11.2119 52.3881 12.7178 53.9053 14.5756 53.9053H44.9897C46.8475 53.9053 48.3534 52.3881 48.3534 50.5163V19.8592C48.3675 17.9875 46.8615 16.4702 45.0038 16.4702V16.4702Z" fill="#2D2D2D"/>
<path d="M63.3845 45.525H66.9452V29.8986H63.3845V45.525ZM76.3748 36.2938C74.5593 35.6983 72.8704 35.2303 72.8704 34.0959V34.0392C72.8704 33.1175 73.6585 32.4652 75.0519 32.4652C75.7274 32.4652 76.4734 32.6212 77.2615 32.8906C77.2615 32.8906 77.2756 32.8906 77.2897 32.9048C77.36 32.9332 77.4304 32.9615 77.4867 32.9757C78.0497 33.16 79.5697 33.4011 80.8504 31.3875C79.1897 30.3099 77.0785 29.6292 75.1363 29.6292C72.0541 29.6292 69.6052 31.4301 69.6052 34.3937V34.4504C69.6052 37.4424 72.1667 38.3925 74.4608 39.0447C76.2763 39.6119 77.923 40.0232 77.923 41.2285V41.2852C77.923 42.3203 77.0363 42.9726 75.5163 42.9726C74.503 42.9726 73.3911 42.7032 72.2793 42.1785C71.9556 42.0367 70.2948 41.4695 68.8874 43.5114C70.8156 45.0287 73.2504 45.8228 75.4319 45.8228C78.6689 45.8228 81.1882 44.1921 81.1882 40.9023V40.8598C81.1882 38.038 78.6408 37.0028 76.3748 36.2938ZM53.6874 41.3844L49.5074 29.8986H45.6934L52.0689 45.6526H55.2778L61.6252 29.8986H57.8956L53.6874 41.3844ZM97.7111 29.5725C92.9541 29.5725 89.4215 33.2735 89.4215 37.7685C89.4215 42.2352 92.9119 45.8795 97.6548 45.8795C102.44 45.8795 105.973 42.1785 105.973 37.7118C105.973 33.2168 102.468 29.5725 97.7111 29.5725ZM97.7111 42.7741C94.9526 42.7741 92.9823 40.4911 92.9823 37.7118C92.9823 34.9609 94.7978 32.7063 97.6548 32.7063C100.442 32.7063 102.412 34.9893 102.412 37.7685C102.412 40.5336 100.582 42.7741 97.7111 42.7741ZM116.514 29.5725C114.107 29.5725 112.658 30.8487 111.659 32.3234V29.8986H108.098V45.5392H111.659V36.7192C111.659 34.2944 113.094 32.8339 115.163 32.8339C117.274 32.8339 118.484 34.2235 118.484 36.6483V45.525H122.045V35.5706C122.045 31.9406 120.019 29.5725 116.514 29.5725ZM83.5385 45.525H87.0993V29.8986H83.5385V45.525Z" fill="#2D2D2D"/>
<path d="M23.6251 27.2231C24.8637 27.2231 25.8911 26.2447 25.8911 24.9685C25.8911 23.6923 24.8496 22.7139 23.6251 22.7139C22.3866 22.7139 21.3592 23.6923 21.3592 24.9685C21.3592 26.2447 22.4007 27.2231 23.6251 27.2231ZM18.9244 39.2903C18.7977 39.8575 18.7274 40.4814 18.7274 40.9777C18.7274 42.9629 19.797 44.2816 22.0629 44.2816C23.9489 44.2816 25.4689 43.1614 26.5666 41.3322L25.8911 44.0406H29.6348L31.774 35.4049C32.3089 33.2212 33.3363 32.0868 34.9126 32.0868C36.1511 32.0868 36.9111 32.8667 36.9111 34.1429C36.9111 34.5116 36.8829 34.9228 36.7422 35.3482L35.6444 39.3186C35.4755 39.8858 35.4051 40.4672 35.4051 41.006C35.4051 42.892 36.5029 44.2674 38.8111 44.2674C40.7814 44.2674 42.3437 42.9912 43.2163 39.9284L41.7526 39.3612C41.0207 41.4173 40.3874 41.7859 39.8807 41.7859C39.374 41.7859 39.1066 41.4456 39.1066 40.7792C39.1066 40.4814 39.177 40.1411 39.2755 39.7298L40.3451 35.8587C40.6126 34.9512 40.7111 34.1429 40.7111 33.4056C40.7111 30.5128 38.98 29.0098 36.8689 29.0098C34.8985 29.0098 32.9 30.7964 31.9007 32.6824L32.6326 29.3076H26.9185L26.1163 32.2853H28.7903L27.1437 38.9216C25.8489 41.8143 23.4844 41.8568 23.1889 41.8001C22.6963 41.6867 22.3866 41.5023 22.3866 40.8642C22.3866 40.4956 22.457 39.9709 22.6259 39.3186L25.1311 29.3076H18.7837L17.9814 32.2853H20.6133L18.9244 39.2903Z" fill="white"/>
</svg>
