<svg width="111" height="33" viewBox="0 0 111 33" fill="none" xmlns="http://www.w3.org/2000/svg">
<path d="M89.0571 27.2219H22.8223L28.1242 32.5239L89.0571 27.2219Z" fill="#2D2D2D"/>
<path d="M28.9951 5.93525V6.72659C27.729 5.93525 26.7002 5.46045 25.1176 5.46045C20.4487 5.46045 16.9668 9.65453 16.9668 14.8773C16.9668 20.1002 20.5278 24.2942 25.1176 24.2942C26.6211 24.2942 27.729 23.8194 28.9951 23.0281V23.8194H33.0309V5.93525H28.9951ZM25.1176 20.021C22.8227 20.021 21.1609 17.8053 21.1609 14.9565C21.1609 12.1077 22.8227 9.89193 25.1176 9.89193C27.4124 9.89193 28.9951 12.1077 28.9951 14.9565C29.0742 17.7262 27.4124 20.021 25.1176 20.021Z" fill="#2D2D2D"/>
<path d="M61.5981 5.93506V16.4598C61.5981 18.4382 60.2528 20.1 58.2745 20.1C56.2962 20.1 54.9509 18.4382 54.9509 16.4598V5.93506H50.8359V16.4598C50.8359 20.8122 53.7639 24.294 58.1162 24.294C60.0946 24.294 61.5981 23.1862 61.5981 23.1862V23.8192H65.6339V5.93506H61.5981Z" fill="#2D2D2D"/>
<path d="M99.5817 23.8986V13.2947C99.5817 11.3163 100.927 9.65453 102.905 9.65453C104.884 9.65453 106.229 11.3163 106.229 13.2947V23.8194H110.344V13.2947C110.344 8.94233 107.416 5.46045 103.064 5.46045C101.085 5.46045 99.5817 6.56832 99.5817 6.56832V5.93525H95.5459V23.8986H99.5817Z" fill="#2D2D2D"/>
<path d="M5.25466 23.8983V16.9345H8.26173L13.4845 23.8983H18.7865L12.4558 15.5101C14.4342 14.0857 15.7003 11.7908 15.7003 9.17941C15.7003 4.90619 12.2184 1.42432 7.9452 1.42432H0.981445V23.8191H5.25466V23.8983ZM5.25466 5.69753H8.02433C9.92354 5.69753 11.5062 7.2802 11.5062 9.17941C11.5062 11.0786 9.92354 12.6613 8.02433 12.6613H5.25466V5.69753Z" fill="#2D2D2D"/>
<path d="M76.7128 19.625C76.3171 19.8624 75.9215 20.0998 75.3675 20.0998C74.7345 20.0998 73.4683 19.625 73.4683 17.8841V10.2081H76.9502V5.93493H73.4683V1.42432H69.4325V5.93493H67.2959V10.2081H69.4325V17.9632C69.4325 21.999 72.4396 24.3731 75.5258 24.3731C76.6337 24.3731 78.2163 23.9774 79.4825 23.2652L76.7128 19.625Z" fill="#2D2D2D"/>
<path d="M43.1594 14.3232L50.2023 5.93502H44.5047L39.5984 12.1866V0H35.4043V23.8983H39.5984V16.5389L45.6125 23.8983H51.3101L43.1594 14.3232Z" fill="#2D2D2D"/>
<path d="M86.1292 5.46045C81.3812 5.46045 78.0576 9.5754 78.0576 14.8773C78.0576 20.4167 82.3308 24.2942 86.5249 24.2942C88.6615 24.2942 91.4312 23.582 93.7261 20.2584L90.1651 18.201C87.3954 22.3159 82.7265 20.2584 82.1726 16.1435H93.8843C94.9131 9.73366 90.719 5.46045 86.1292 5.46045ZM89.6903 12.5825H82.3308C83.2013 8.38839 88.8989 8.15099 89.6903 12.5825Z" fill="#2D2D2D"/>
</svg>
