<svg width="86" height="35" viewBox="0 0 86 35" fill="none" xmlns="http://www.w3.org/2000/svg">
<path d="M85.9815 18.378C85.9815 12.3898 83.0591 7.66513 77.4536 7.66513C71.848 7.66513 68.4342 12.3898 68.4342 18.3385C68.4342 25.3795 72.459 28.6302 78.1974 28.6302C81.0135 28.6302 83.1255 27.9985 84.7328 27.1167V22.721C83.1255 23.5238 81.2792 24.0108 78.9413 24.0108C76.6433 24.0108 74.6242 23.208 74.3585 20.4705H85.9018C85.9283 20.1678 85.9815 18.9439 85.9815 18.378ZM74.3054 16.167C74.3054 13.5348 75.9393 12.4293 77.4137 12.4293C78.8616 12.4293 80.4025 13.5348 80.4025 16.167H74.3054ZM59.3085 7.66513C56.9972 7.66513 55.5095 8.74431 54.6859 9.49448L54.3804 8.04679H49.1866V35L55.0844 33.7629L55.0977 27.1562C55.9478 27.7747 57.2098 28.6302 59.2687 28.6302C63.4928 28.6302 67.3449 25.5769 67.3449 18.1542C67.3582 11.3633 63.4529 7.66513 59.3085 7.66513ZM57.9005 23.787C56.519 23.787 55.6955 23.2869 55.1243 22.6815L55.0844 13.9954C55.6955 13.3243 56.5456 12.8373 57.9005 12.8373C60.0524 12.8373 61.5401 15.2326 61.5401 18.2858C61.5534 21.4313 60.0922 23.787 57.9005 23.787ZM46.9816 0.268799V5.03299L41.0572 6.28326V1.51907L46.9816 0.268799ZM41.0705 8.05995H46.9949V28.2222H41.0705V8.05995ZM34.7211 9.78401C36.1026 7.27031 38.8522 7.78358 39.6492 8.05995V13.4295C38.8921 13.1926 36.5409 12.8373 35.1462 14.6535V28.2222H29.2616V8.05995H34.3624L34.7211 9.78401ZM22.8989 8.05995H27.3754V13.0347H22.8989V21.3523C22.8989 24.8004 26.6183 23.7212 27.3754 23.4185V27.8669C26.5917 28.288 25.1704 28.6433 23.231 28.6433C19.7375 28.6433 17.1074 26.406 17.1074 22.9447L17.134 4.20386L22.8856 2.99307L22.8989 8.05995ZM6.93238 13.9954C6.93238 16.6276 15.9518 15.3773 15.9518 22.3394C15.9518 26.5508 12.5778 28.6302 7.67624 28.6302C5.64389 28.6302 3.42558 28.2354 1.23383 27.301V22.0367C3.21304 23.1027 5.73688 23.9055 7.68952 23.9055C9.00457 23.9055 9.94769 23.5501 9.94769 22.471C9.94769 19.6809 0.981445 20.7337 0.981445 14.2587C0.981445 10.1262 4.16944 7.65197 8.95144 7.65197C10.9041 7.65197 12.8567 7.95467 14.8094 8.71799V14.2192C13.0161 13.2584 10.7314 12.7189 8.93816 12.7189C7.70281 12.732 6.93238 13.0874 6.93238 13.9954Z" fill="#2D2D2D"/>
</svg>
