<svg width="146" height="28" viewBox="0 0 146 28" fill="none" xmlns="http://www.w3.org/2000/svg">
<path d="M97.1763 24.1672C99.0911 24.2104 100.945 23.4876 102.335 22.1563L104.892 24.9434C103.203 26.6969 100.861 28 97.2201 28C90.9784 28 86.9434 23.8173 86.9434 18.1626C86.9181 16.8666 87.1516 15.5787 87.6299 14.3758C88.1083 13.1729 88.8217 12.0796 89.7277 11.1611C90.6336 10.2426 91.7135 9.51782 92.9029 9.0299C94.0923 8.54197 95.3668 8.30094 96.6505 8.32117C102.848 8.32117 106.362 13.083 106.051 19.6869H91.4006C91.9184 22.4298 93.8304 24.1793 97.1643 24.1793L97.1763 24.1672ZM101.626 16.5378C101.227 13.9759 99.7136 12.0896 96.6863 12.0896C93.8702 12.0896 91.9065 13.6984 91.4006 16.5378H101.63H101.626ZM0.981445 23.954L12.254 12.3872H1.24832V8.75955H17.4839V12.4596L6.21142 24.0224H17.6433V27.6541H0.981445V23.954ZM30.298 24.1632C32.2128 24.2064 34.067 23.4836 35.4562 22.1523L38.0135 24.9394C36.3246 26.6929 33.9824 27.996 30.3418 27.996C24.1001 27.996 20.0651 23.8133 20.0651 18.1586C20.0398 16.8626 20.2733 15.5747 20.7516 14.3718C21.23 13.1689 21.9434 12.0756 22.8494 11.1571C23.7553 10.2386 24.8352 9.5138 26.0246 9.02588C27.214 8.53795 28.4885 8.29692 29.7722 8.31715C35.9701 8.31715 39.4833 13.079 39.1726 19.6829H24.5303C25.0481 22.4257 26.96 24.1752 30.294 24.1752L30.298 24.1632ZM34.7552 16.5338C34.3569 13.9718 32.8432 12.0856 29.816 12.0856C26.9999 12.0856 25.0361 13.6943 24.5303 16.5338H34.7592H34.7552ZM63.526 18.1546C63.526 12.1218 67.9992 8.32519 72.9264 8.32519C74.1087 8.30931 75.2801 8.5549 76.3584 9.04472C77.4366 9.53455 78.3957 10.2567 79.1681 11.1606V0.012065H83.1513V27.6018H79.1681V24.9997C78.4105 25.9407 77.4528 26.6975 76.3661 27.2141C75.2795 27.7307 74.0916 27.9938 72.8906 27.9839C68.1107 27.9839 63.53 24.1632 63.53 18.1586L63.526 18.1546ZM79.3912 18.1184C79.3599 16.9388 78.9848 15.7947 78.3128 14.8292C77.6409 13.8637 76.7019 13.1197 75.6133 12.6902C74.5248 12.2607 73.335 12.1648 72.1927 12.4145C71.0505 12.6643 70.0066 13.2485 69.1914 14.0941C68.3763 14.9398 67.8262 16.0093 67.61 17.169C67.3938 18.3286 67.521 19.5269 67.9757 20.6139C68.4304 21.701 69.1925 22.6285 70.1665 23.2806C71.1406 23.9326 72.2835 24.2802 73.4522 24.2798C76.8778 24.2798 79.3872 21.5208 79.3872 18.1184H79.3912ZM108.656 23.5881L112.265 21.6978C112.742 22.5566 113.442 23.2674 114.29 23.7537C115.138 24.2399 116.102 24.483 117.076 24.4568C119.331 24.4568 120.502 23.2904 120.502 21.9632C120.502 20.451 118.323 20.1132 115.953 19.6185C112.767 18.9348 109.449 17.877 109.449 13.9879C109.449 10.9997 112.265 8.23671 116.698 8.27693C120.191 8.27693 122.792 9.67653 124.266 11.9368L120.92 13.7868C120.458 13.0956 119.829 12.5348 119.092 12.1576C118.355 11.7804 117.535 11.5992 116.71 11.6311C114.567 11.6311 113.476 12.6889 113.476 13.8995C113.476 15.2588 115.204 15.6369 117.913 16.2442C120.996 16.9279 124.485 17.9454 124.485 21.8747C124.485 24.4809 122.231 27.996 116.893 27.9598C112.99 27.9598 110.241 26.3712 108.66 23.576L108.656 23.5881ZM135.308 19.2043L132.149 22.6831V27.5898H128.166V0H132.149V18.0701L140.605 8.69923H145.457L138.128 16.7831L145.648 27.5938H141.139L135.312 19.2043H135.308ZM51.4887 8.32117C46.7487 8.32117 42.7854 11.418 42.7854 16.5659V27.6059H46.8483V17.0767C46.8483 13.9799 48.6128 12.1218 51.6281 12.1218C54.6434 12.1218 56.1411 13.9719 56.1411 17.0767V27.6059H60.1801V16.5659C60.1801 11.426 56.1969 8.32117 51.4768 8.32117" fill="#2D2D2D"/>
</svg>
